<svg width="120" height="120" viewBox="0 0 120 120" fill="none" xmlns="http://www.w3.org/2000/svg">
  <defs>
    <linearGradient id="feedingGradient" x1="0%" y1="0%" x2="100%" y2="100%">
      <stop offset="0%" style="stop-color:#FF9A9E;stop-opacity:1" />
      <stop offset="50%" style="stop-color:#FECFEF;stop-opacity:1" />
      <stop offset="100%" style="stop-color:#FECFEF;stop-opacity:1" />
    </linearGradient>
  </defs>
  <circle cx="60" cy="60" r="50" fill="url(#feedingGradient)" stroke="#fff" stroke-width="4"/>
  <!-- 狗狗头部 -->
  <ellipse cx="60" cy="45" rx="20" ry="18" fill="#8B5CF6"/>
  <!-- 耳朵 -->
  <ellipse cx="45" cy="35" rx="6" ry="10" fill="#8B5CF6" transform="rotate(-20 45 35)"/>
  <ellipse cx="75" cy="35" rx="6" ry="10" fill="#8B5CF6" transform="rotate(20 75 35)"/>
  <!-- 眼睛 -->
  <circle cx="55" cy="42" r="3" fill="#fff"/>
  <circle cx="65" cy="42" r="3" fill="#fff"/>
  <circle cx="56" cy="41" r="1.5" fill="#333"/>
  <circle cx="66" cy="41" r="1.5" fill="#333"/>
  <!-- 鼻子 -->
  <ellipse cx="60" cy="48" rx="3" ry="2" fill="#333"/>
  <!-- 嘴巴 -->
  <path d="M55 52 Q60 58 65 52" stroke="#333" stroke-width="2" fill="none"/>
  <!-- 食物碗 -->
  <ellipse cx="60" cy="80" rx="15" ry="8" fill="#FFD700" stroke="#FFA500" stroke-width="2"/>
  <ellipse cx="60" cy="75" rx="12" ry="6" fill="#FFE4B5"/>
  <!-- 爱心 -->
  <path d="M52 68 C50 65, 45 65, 45 70 C45 72, 52 78, 52 78 C52 78, 52 75, 52 73 C52 70, 52 68, 52 68 Z" fill="#FF4757"/>
  <path d="M68 68 C70 65, 75 65, 75 70 C75 72, 68 78, 68 78 C68 78, 68 75, 68 73 C68 70, 68 68, 68 68 Z" fill="#FF4757"/>
</svg>
