<svg width="120" height="120" viewBox="0 0 120 120" fill="none" xmlns="http://www.w3.org/2000/svg">
  <defs>
    <linearGradient id="mallGradient" x1="0%" y1="0%" x2="100%" y2="100%">
      <stop offset="0%" style="stop-color:#FF9A9E;stop-opacity:1" />
      <stop offset="50%" style="stop-color:#FECFEF;stop-opacity:1" />
      <stop offset="100%" style="stop-color:#FECFEF;stop-opacity:1" />
    </linearGradient>
  </defs>
  <circle cx="60" cy="60" r="50" fill="url(#mallGradient)" stroke="#fff" stroke-width="4"/>
  <!-- 购物袋主体 -->
  <path d="M45 40 L45 75 L75 75 L75 40 L70 35 L50 35 Z" fill="#FF6B6B" stroke="#E84342" stroke-width="2"/>
  <!-- 袋子把手 -->
  <path d="M50 35 Q60 25 70 35" stroke="#E84342" stroke-width="3" fill="none"/>
  <!-- 商品物品 -->
  <!-- 骨头 -->
  <ellipse cx="55" cy="50" rx="6" ry="3" fill="#FFD93D" transform="rotate(45 55 50)"/>
  <ellipse cx="55" cy="50" rx="3" ry="6" fill="#FFD93D" transform="rotate(45 55 50)"/>
  <!-- 玩具球 -->
  <circle cx="65" cy="55" r="4" fill="#FF7675" stroke="#D63031" stroke-width="1"/>
  <circle cx="65" cy="55" r="2" fill="#FFEAA7"/>
  <!-- 项圈 -->
  <ellipse cx="60" cy="65" rx="8" ry="3" fill="#74B9FF" stroke="#0984E3" stroke-width="1"/>
  <ellipse cx="52" cy="65" rx="2" ry="1.5" fill="#0984E3"/>
  <ellipse cx="68" cy="65" rx="2" ry="1.5" fill="#0984E3"/>
  <!-- 星星装饰 -->
  <polygon points="35,45 37,37 39,45 47,45 41,49 43,57 35,51 27,57 29,49 23,45" fill="#FFD700"/>
  <polygon points="85,45 87,37 89,45 97,45 91,49 93,57 85,51 77,57 79,49 73,45" fill="#FFD700"/>
  <!-- 爱心装饰 -->
  <path d="M30 30 C28 27, 23 27, 23 32 C23 34, 30 40, 30 40 C30 40, 30 37, 30 35 C30 32, 30 30, 30 30 Z" fill="#FF4757"/>
  <path d="M90 30 C92 27, 97 27, 97 32 C97 34, 90 40, 90 40 C90 40, 90 37, 90 35 C90 32, 90 30, 90 30 Z" fill="#FF4757"/>
  <!-- 价格标签 -->
  <rect x="48" y="42" width="24" height="12" fill="#FFEAA7" stroke="#D63031" stroke-width="1" rx="6"/>
  <text x="60" y="50" text-anchor="middle" font-family="Arial" font-size="8" font-weight="bold" fill="#D63031">¥</text>
</svg>
